<?xml version="1.0" encoding="UTF-8"?> <svg xmlns="http://www.w3.org/2000/svg" width="259.5" height="216.2" viewBox="0 0 259.5 216.2"><title>Recurso 1</title><g id="Capa_2" data-name="Capa 2"><g id="Capa_2-2" data-name="Capa 2"><rect width="259.5" height="205.51" fill="#fff"></rect><path d="M171.3,82.6a2.9,2.9,0,0,0,2.9-3,3,3,0,0,0-2.9-3,2.9,2.9,0,0,0-2.8,3,2.8,2.8,0,0,0,2.8,3m-7.1,7.9a2.9,2.9,0,1,0,5.7,0,2.9,2.9,0,1,0-5.7,0m-9.9-7.3a3,3,0,0,0,2.9-3,2.9,2.9,0,1,0-5.8,0,3,3,0,0,0,2.9,3M156.9,73a2.8,2.8,0,0,0,2.8-3,2.9,2.9,0,0,0-2.8-3,3,3,0,0,0-2.9,3,2.9,2.9,0,0,0,2.9,3m-8.5,34.1a2.9,2.9,0,1,0,5.8,0,2.9,2.9,0,1,0-5.8,0m-2.4-18a2.9,2.9,0,1,0,5.7,0,2.9,2.9,0,1,0-5.7,0m-9.3,5.5a2.9,2.9,0,1,0,5.7,0,2.9,2.9,0,1,0-5.7,0m-21.2,16.8a3,3,0,0,0,2.9,3,2.9,2.9,0,0,0,2.8-3,2.8,2.8,0,0,0-2.8-3,2.9,2.9,0,0,0-2.9,3m-10.9-4.3a2.9,2.9,0,1,0,5.8,0,2.9,2.9,0,1,0-5.8,0m-2.5-26.9a2.9,2.9,0,1,0,5.7,0,2.9,2.9,0,1,0-5.7,0M105.4,70a2.9,2.9,0,1,0-5.8,0,2.9,2.9,0,1,0,5.8,0M95.5,99.9a2.9,2.9,0,1,0,5.7,0,2.9,2.9,0,1,0-5.7,0M84.6,79.6a2.9,2.9,0,0,0,2.9,3,2.8,2.8,0,0,0,2.8-3,2.9,2.9,0,0,0-2.8-3,3,3,0,0,0-2.9,3M86.3,67a3,3,0,0,0-2.8,3,2.9,2.9,0,1,0,5.7,0,3,3,0,0,0-2.9-3m1.2-9.6a3,3,0,0,0-2.9,3,2.9,2.9,0,0,0,2.9,3,2.8,2.8,0,0,0,2.8-3,2.9,2.9,0,0,0-2.8-3m7.1-7.8a2.9,2.9,0,1,0-5.7,0,2.9,2.9,0,1,0,5.7,0m0,40.9a2.9,2.9,0,1,0-5.7,0,2.9,2.9,0,1,0,5.7,0m6.6-50.4a2.9,2.9,0,1,0-5.7,0,2.9,2.9,0,1,0,5.7,0M104.9,57a3,3,0,1,0,2.9,3,2.9,2.9,0,0,0-2.9-3m5.5-24a2.9,2.9,0,1,0-5.8,0,2.9,2.9,0,1,0,5.8,0m2.8,18.1a2.9,2.9,0,1,0-5.7,0,2.9,2.9,0,1,0,5.7,0m0,38a2.9,2.9,0,1,0-5.7,0,2.9,2.9,0,1,0,5.7,0m8-60.4a2.8,2.8,0,0,0-2.8-3,2.9,2.9,0,0,0-2.9,3,3,3,0,0,0,2.9,3,2.9,2.9,0,0,0,2.8-3m1.3,16.9a2.8,2.8,0,0,0-2.8-3,2.9,2.9,0,0,0-2.9,3,3,3,0,0,0,2.9,3,2.9,2.9,0,0,0,2.8-3m0,49a2.9,2.9,0,0,0-2.8-3,3,3,0,0,0-2.9,3,2.9,2.9,0,0,0,2.9,3,2.8,2.8,0,0,0,2.8-3m9.8-67.9a2.9,2.9,0,1,0-5.8,0,2.9,2.9,0,1,0,5.8,0m0,16.9a2.9,2.9,0,1,0-2.9,3,3,3,0,0,0,2.9-3m0,53.3a2.9,2.9,0,1,0-5.8,0,2.9,2.9,0,1,0,5.8,0m0,16.5a2.9,2.9,0,1,0-5.8,0,2.9,2.9,0,1,0,5.8,0m7.3-70.8a2.9,2.9,0,0,0-2.9,3,2.9,2.9,0,1,0,5.7,0,2.9,2.9,0,0,0-2.8-3m3.7-13.9a2.9,2.9,0,0,0-2.9-3,2.8,2.8,0,0,0-2.8,3,2.9,2.9,0,0,0,2.8,3,3,3,0,0,0,2.9-3m0,82.7a2.9,2.9,0,0,0-2.9-3,2.8,2.8,0,0,0-2.8,3,2.9,2.9,0,0,0,2.8,3,3,3,0,0,0,2.9-3m5.6-63.3a3,3,0,0,0-2.9,3,2.9,2.9,0,1,0,5.7,0,3,3,0,0,0-2.8-3M154.2,33a2.9,2.9,0,1,0-5.8,0,2.9,2.9,0,1,0,5.8,0m3,27a2.9,2.9,0,1,0-2.9,3,2.9,2.9,0,0,0,2.9-3m6.1-19.9a2.9,2.9,0,1,0-5.7,0,2.9,2.9,0,1,0,5.7,0m0,59.8a2.9,2.9,0,1,0-5.7,0,2.9,2.9,0,1,0,5.7,0m6.6-50.3a2.9,2.9,0,1,0-5.7,0,2.9,2.9,0,1,0,5.7,0m4.3,10.8a3,3,0,0,0-2.9-3,2.9,2.9,0,0,0-2.8,3,2.8,2.8,0,0,0,2.8,3,2.9,2.9,0,0,0,2.9-3M176,70a2.9,2.9,0,0,0-2.8-3,3,3,0,0,0-2.9,3,2.9,2.9,0,0,0,2.9,3,2.8,2.8,0,0,0,2.8-3" fill="#5b7ca0"></path><rect y="211.2" width="259.5" height="5" fill="#fff"></rect><path d="M230.3,174.8a1.3,1.3,0,0,0-.5-1.2,2.8,2.8,0,0,0-2-.8,2.9,2.9,0,0,0-1.6.4,1.7,1.7,0,0,0-1,1.6c0,.2.1.3.2.5a4.3,4.3,0,0,0,2,1.2l2.1.9c1.1.5,1.7,1.1,1.7,1.9a2.3,2.3,0,0,1-.8,1.6,3.9,3.9,0,0,1-2.6.9,4,4,0,0,1-2.4-.7,2.1,2.1,0,0,1-1-1.8h.6a2.1,2.1,0,0,0,.5,1.2,3.6,3.6,0,0,0,2.3.8,3.7,3.7,0,0,0,1.8-.5,1.7,1.7,0,0,0,1-1.5,1.4,1.4,0,0,0-.2-.6,3.8,3.8,0,0,0-2-1.2l-2.1-.8c-1.1-.6-1.6-1.2-1.6-1.9a2.5,2.5,0,0,1,.6-1.6,3.3,3.3,0,0,1,2.5-1,3.1,3.1,0,0,1,2.1.7,2.4,2.4,0,0,1,1,1.9Zm-7.9,0a1.7,1.7,0,0,0-.5-1.2,2.8,2.8,0,0,0-2-.8,2.7,2.7,0,0,0-1.6.4,1.7,1.7,0,0,0-1,1.6c0,.2.1.3.2.5a3.8,3.8,0,0,0,2,1.2l2.1.9c1.1.5,1.7,1.1,1.7,1.9a2.7,2.7,0,0,1-.8,1.6,3.9,3.9,0,0,1-2.6.9,4,4,0,0,1-2.4-.7,2.1,2.1,0,0,1-1-1.8h.5a1.7,1.7,0,0,0,.6,1.2,3.4,3.4,0,0,0,2.3.8,4.1,4.1,0,0,0,1.8-.5,1.7,1.7,0,0,0,1-1.5,1.4,1.4,0,0,0-.2-.6,3.8,3.8,0,0,0-2-1.2l-2.1-.8c-1.1-.6-1.6-1.2-1.6-1.9a2.5,2.5,0,0,1,.6-1.6,3.2,3.2,0,0,1,2.5-1,3.1,3.1,0,0,1,2.1.7,2.4,2.4,0,0,1,1,1.9Zm-7.3-2.6v.6h-6.3v3.9h4.6v.6h-4.6v4h6.3v.5h-6.8v-9.6h6.8Zm-16.2,9.6h-.5v-9.6h.5l6,8.4v-8.5h.5v9.6h-.5l-6-8.3v8.4Zm-7.9-9.6h.6v9.1h5.1v.5H191v-9.6Zm-7.3,0h.5v9.1h5.1v.5h-5.6v-9.6Zm-2.3,0v.6h-6.2v3.9h4.6v.6h-4.6v4h6.2v.5h-6.8v-9.6h6.8Zm-19.8,0h.5v.3l1.8,8.1,3-8.2v-.2h.4v.2l3,8.2,1.8-8.1v-.3h.6v.4l-1.9,9v.2h-.5l-3.1-8.4-3.1,8.4h-.5v-.2l-2-9Zm-12.2,3.2.4-.2.4-.3q.9-.5.9-.9a.9.9,0,0,0-.3-.7,1,1,0,0,0-1-.5h-.4a1,1,0,0,0-.9,1.1,4.5,4.5,0,0,0,.7,1.5h.2m.4,6.4h-1.2a2.7,2.7,0,0,1-1.9-1.7,2.9,2.9,0,0,1,.1-2.4,5.2,5.2,0,0,1,2-1.8,3.3,3.3,0,0,1-.8-1.8h0a2,2,0,0,1,.3-1.1,2.1,2.1,0,0,1,1.5-.7l.9.3a1.5,1.5,0,0,1,1,1.5c0,.1,0,.2-.1.2s-.8,1-1.9,1.7h-.2a40.7,40.7,0,0,0,3,3.4l.3-.4.4-.6c.5-.7.9-1,1.2-1h.3v.6h-.5a2.7,2.7,0,0,0-.8,1.1l-.5.7h0l1.7,1.6.6.4h-1l-1.6-1.5a3.8,3.8,0,0,1-2.8,1.5m-.8-5.5a5.3,5.3,0,0,0-1.7,1.5.4.4,0,0,1-.1.3,2.3,2.3,0,0,0,.2,2,2.6,2.6,0,0,0,2.4,1.2h.3a3.7,3.7,0,0,0,2.1-1.4,32,32,0,0,1-3.1-3.7.1.1,0,0,1-.1.1m-12.4,5.3v.2h-.5v-4.7l-3-4.4-.3-.5h.7v.2l2.8,4.1,2.7-4.1v-.2h.7l-.3.5-2.9,4.4Zm-7.5-4.9a2.3,2.3,0,0,0,1.4-.4,1.8,1.8,0,0,0,.9-1.5,1.7,1.7,0,0,0-.5-1.2,2.2,2.2,0,0,0-1.8-.8h-3.7v4Zm-4.2.3v-4.8h4.2a3.3,3.3,0,0,1,1.9.6,2.7,2.7,0,0,1,.9,2,2.5,2.5,0,0,1-.6,1.6,2.9,2.9,0,0,1-2.2.9h-3.7v4.5h-.5V177Zm-9.7,4.8h-.7l.2-.4,4-9v-.2h.3v.2l4,9v.4h-.7l-3.7-8.5-3.7,8.5Zm-4.5-5.1a2.1,2.1,0,0,0,1.4-.4,1.8,1.8,0,0,0,.5-2.7,2.6,2.6,0,0,0-1.9-.8h-3.6v4h3.6Zm1.1.9a10.1,10.1,0,0,1,1.8,3.9v.3h-.6v-.2a20.2,20.2,0,0,0-1.1-2.9,4.1,4.1,0,0,0-1.2-1.4h-3.6v4.5h-.6v-9.6h4.2a3.3,3.3,0,0,1,1.9.6,2.8,2.8,0,0,1,1,2,2,2,0,0,1-.3,1.1,2.7,2.7,0,0,1-1.8,1.3l.3.4m-7.6-5.4v.6H98v3.9h4.6v.6H98v4h6.2v.5H97.5v-9.6h6.7Zm-9.6,9.4v.2h-.5v-4.5h-6v4.5h-.5v-9.6h.5v4.5h6v-4.5h.5v9.4Zm-9-9.4h.3v.6H82.5v9h-.6v-9H78.5v-.6h7.1Zm-14,0h.3v.6H68.5v9h-.6v-9H64.5v-.6h7.1Zm-11,4.5a2.5,2.5,0,0,0,1.4-.4,1.9,1.9,0,0,0,.8-1.5,1.7,1.7,0,0,0-.4-1.2,2.5,2.5,0,0,0-1.8-.8H56.9v4h3.7Zm1,.9a10.1,10.1,0,0,1,1.8,3.9v.3h-.6v-.2a12.6,12.6,0,0,0-1.1-2.9,4.1,4.1,0,0,0-1.2-1.4H56.9v4.5h-.6v-9.6h4.3a2.8,2.8,0,0,1,1.8.6,2.5,2.5,0,0,1,1,2,2,2,0,0,1-.3,1.1,2.7,2.7,0,0,1-1.8,1.3l.3.4M47.2,180a3.5,3.5,0,0,0,2.6,1.3,3.2,3.2,0,0,0,2.5-1.2,4.3,4.3,0,0,0,1.2-3.1,3.9,3.9,0,0,0-1.1-2.9,3.2,3.2,0,0,0-2.6-1.3,3.6,3.6,0,0,0-2.5,1.1,5,5,0,0,0-.1,6.1m-.3-6.4a3.8,3.8,0,0,1,2.9-1.4,3.9,3.9,0,0,1,3,1.4,5.1,5.1,0,0,1,1.3,3.4,5.4,5.4,0,0,1-1.3,3.5,3.8,3.8,0,0,1-3,1.3,3.7,3.7,0,0,1-2.9-1.3,4.9,4.9,0,0,1-1.3-3.5,4.7,4.7,0,0,1,1.3-3.4m-5.6,3.1a2.1,2.1,0,0,0,1.4-.4,1.8,1.8,0,0,0,.9-1.5,1.6,1.6,0,0,0-.4-1.2,2.6,2.6,0,0,0-1.9-.8H37.7v4Zm-4.2.3v-4.8h4.2a3.1,3.1,0,0,1,1.9.6,2.8,2.8,0,0,1,1,2,2.1,2.1,0,0,1-.7,1.6,2.8,2.8,0,0,1-2.2.9H37.7v4.5h-.6V177Zm-2.8-2.2a1.7,1.7,0,0,0-.5-1.2,2.9,2.9,0,0,0-2.1-.8,3.2,3.2,0,0,0-1.6.4,1.8,1.8,0,0,0-.9,1.6c0,.2.1.3.2.5a3.8,3.8,0,0,0,2,1.2l2.1.9c1.1.5,1.6,1.1,1.6,1.9a2.1,2.1,0,0,1-.7,1.6,4,4,0,0,1-2.7.9,3.7,3.7,0,0,1-2.3-.7,2.2,2.2,0,0,1-1.1-1.8h.6a1.7,1.7,0,0,0,.6,1.2,3.3,3.3,0,0,0,2.2.8,3.5,3.5,0,0,0,1.8-.5,1.8,1.8,0,0,0,1.1-1.5,1.4,1.4,0,0,0-.2-.6,4.3,4.3,0,0,0-2-1.2l-2.1-.8c-1.1-.6-1.7-1.2-1.7-1.9a2.6,2.6,0,0,1,.7-1.6,3,3,0,0,1,2.4-1,3.1,3.1,0,0,1,2.1.7,2.2,2.2,0,0,1,1,1.9Z" fill="#5b7ca0"></path><line x1="110.1" y1="88.9" x2="119.9" y2="46.5" fill="none" stroke="#5b7ca0" stroke-width="0.26"></line><line x1="149.3" y1="89.1" x2="139.8" y2="45.9" fill="none" stroke="#5b7ca0" stroke-width="0.26"></line><line x1="140.5" y1="28.7" x2="129.4" y2="43.8" fill="none" stroke="#5b7ca0" stroke-width="0.26"></line><line x1="173.5" y1="70.1" x2="154.5" y2="80.3" fill="none" stroke="#5b7ca0" stroke-width="0.26"></line><line x1="171.3" y1="79.7" x2="154.6" y2="80.3" fill="none" stroke="#5b7ca0" stroke-width="0.26"></line><line x1="129.7" y1="26.5" x2="129.1" y2="43.4" fill="none" stroke="#5b7ca0" stroke-width="0.26"></line><line x1="119.9" y1="94.5" x2="118.2" y2="111.7" fill="none" stroke="#5b7ca0" stroke-width="0.26"></line><line x1="110.3" y1="89.4" x2="118.4" y2="111.3" fill="none" stroke="#5b7ca0" stroke-width="0.26"></line><line x1="129.5" y1="96.9" x2="118.2" y2="111.4" fill="none" stroke="#5b7ca0" stroke-width="0.26"></line><line x1="92.1" y1="49.7" x2="102.2" y2="70.1" fill="none" stroke="#5b7ca0" stroke-width="0.26"></line><line x1="91.6" y1="91" x2="110.5" y2="88.6" fill="none" stroke="#5b7ca0" stroke-width="0.26"></line><line x1="98.7" y1="100" x2="110.2" y2="89.4" fill="none" stroke="#5b7ca0" stroke-width="0.26"></line><line x1="87.8" y1="60.4" x2="102.5" y2="70.1" fill="none" stroke="#5b7ca0" stroke-width="0.26"></line><line x1="139" y1="94.6" x2="160.9" y2="100.3" fill="none" stroke="#5b7ca0" stroke-width="0.26"></line><line x1="149" y1="89.4" x2="160.6" y2="100.3" fill="none" stroke="#5b7ca0" stroke-width="0.26"></line><line x1="86.5" y1="69.7" x2="102.4" y2="70.2" fill="none" stroke="#5b7ca0" stroke-width="0.26"></line><line x1="151.3" y1="32.7" x2="129.2" y2="43.5" fill="none" stroke="#5b7ca0" stroke-width="0.26"></line><line x1="102.3" y1="69.9" x2="153.9" y2="60.4" fill="none" stroke="#5b7ca0" stroke-width="0.26"></line><line x1="166.7" y1="49.7" x2="157.3" y2="69.5" fill="none" stroke="#5b7ca0" stroke-width="0.26"></line><line x1="154" y1="59.5" x2="167" y2="49.3" fill="none" stroke="#5b7ca0" stroke-width="0.26"></line><line x1="107.5" y1="32.6" x2="110.6" y2="51.2" fill="none" stroke="#5b7ca0" stroke-width="0.26"></line><line x1="107.3" y1="32.5" x2="119.1" y2="45.6" fill="none" stroke="#5b7ca0" stroke-width="0.26"></line><path d="M168,129.1h3.9v29.1h15.5v3.9H168v-33Zm-31.7,33h-4.2l1.2-2.7,12.6-29.1.5-1.2h2.5l.6,1.2,12.6,29.1,1.1,2.7H159l-.5-1.2L147.7,136l-10.8,24.9Zm-7-33V133H109.9v10.7H124v3.8H109.9v10.7h19.4v3.9H106v-33h23.3Zm-33,31v2H92.4V147.5H76v14.6H72.1v-33H76v14.6H92.4V129.1h3.9v31Z" fill="#5b7ca0"></path></g></g></svg> 